<svg width="15" height="20" viewBox="0 0 15 20" fill="none" xmlns="http://www.w3.org/2000/svg">
<path d="M13.4572 7.02818C13.4572 10.5853 7.02867 19.171 7.02867 19.171C7.02867 19.171 0.600098 10.5853 0.600098 7.02818C0.600098 5.32322 1.27739 3.68809 2.48298 2.48249C3.68857 1.2769 5.32371 0.599609 7.02867 0.599609C8.73363 0.599609 10.3688 1.2769 11.5744 2.48249C12.7799 3.68809 13.4572 5.32322 13.4572 7.02818Z" stroke="white" stroke-width="1.2" stroke-linecap="round" stroke-linejoin="round"/>
<path d="M7.0286 9.17048C8.21207 9.17048 9.17146 8.21109 9.17146 7.02762C9.17146 5.84416 8.21207 4.88477 7.0286 4.88477C5.84513 4.88477 4.88574 5.84416 4.88574 7.02762C4.88574 8.21109 5.84513 9.17048 7.0286 9.17048Z" stroke="white" stroke-width="1.2" stroke-linecap="round" stroke-linejoin="round"/>
</svg>
