<svg width="20" height="20" viewBox="0 0 20 20" fill="none" xmlns="http://www.w3.org/2000/svg">
<path d="M19.1954 15.8337H17.0065C16.1783 15.8337 15.9288 15.175 14.4443 13.7164C13.1469 12.4886 12.5989 12.336 12.2707 12.336C11.8168 12.336 11.693 12.4585 11.693 13.0719V15.0054C11.693 15.5284 11.5203 15.8346 10.1288 15.8346C8.77893 15.7456 7.46987 15.3429 6.3095 14.6598C5.14913 13.9766 4.17065 13.0326 3.45465 11.9053C1.75457 9.82764 0.571656 7.38908 0 4.78361C0 4.46135 0.124751 4.16925 0.750427 4.16925H2.93837C3.50071 4.16925 3.70319 4.41518 3.92391 4.98337C4.98621 8.05331 6.79894 10.7237 7.53498 10.7237C7.81711 10.7237 7.93994 10.6012 7.93994 9.91054V6.74826C7.84685 5.30563 7.06668 5.18408 7.06668 4.66206C7.07655 4.52434 7.14071 4.39582 7.24553 4.3038C7.35035 4.21178 7.48758 4.16351 7.62806 4.16925H11.0674C11.5376 4.16925 11.693 4.39916 11.693 4.95134V9.21985C11.693 9.68062 11.8946 9.83327 12.0366 9.83327C12.3187 9.83327 12.5356 9.68062 13.0528 9.17368C14.1615 7.846 15.0673 6.36679 15.7417 4.78267C15.8107 4.59247 15.9412 4.42967 16.1133 4.31909C16.2853 4.2085 16.4895 4.15621 16.6946 4.17019H18.8835C19.5399 4.17019 19.679 4.49245 19.5399 4.95228C18.7438 6.70342 17.7587 8.36568 16.6015 9.91054C16.3654 10.2639 16.2714 10.4476 16.6015 10.8622C16.8184 11.1845 17.5861 11.8139 18.1014 12.4123C18.8518 13.1473 19.4746 13.9972 19.9458 14.9282C20.1339 15.5275 19.8201 15.8337 19.1954 15.8337Z" fill="#111111"/>
</svg>
