<svg width="20" height="20" viewBox="0 0 20 20" fill="none" xmlns="http://www.w3.org/2000/svg">
<g clip-path="url(#clip0_1864_543)">
<path d="M11.028 0.557803C11.7577 0.555158 12.4874 0.562084 13.2169 0.57858L13.4109 0.585191C13.6349 0.592746 13.8559 0.60219 14.1229 0.613523C15.1868 0.660744 15.9128 0.819405 16.5497 1.05267C17.2097 1.29256 17.7657 1.61743 18.3216 2.14253C18.83 2.61436 19.2234 3.18511 19.4746 3.81508C19.7216 4.41667 19.8896 5.10326 19.9396 6.10811C19.9516 6.35933 19.9616 6.56899 19.9696 6.78054L19.9756 6.96375C19.9933 7.65241 20.001 8.34127 19.9986 9.03013L19.9996 9.73466V10.9718C20.002 11.661 19.9943 12.3502 19.9766 13.0392L19.9706 13.2224C19.9626 13.4339 19.9526 13.6426 19.9406 13.8948C19.8906 14.8996 19.7206 15.5853 19.4746 16.1869C19.2242 16.8175 18.8307 17.3887 18.3216 17.8604C17.8216 18.3404 17.217 18.712 16.5497 18.9493C15.9128 19.1826 15.1868 19.3412 14.1229 19.3884C13.8559 19.3998 13.6349 19.4092 13.4109 19.4168L13.2169 19.4224C12.4874 19.4392 11.7577 19.4465 11.028 19.4442L10.282 19.4451H8.97312C8.24342 19.4474 7.51372 19.4402 6.78423 19.4234L6.59024 19.4177C6.35286 19.4096 6.11554 19.4001 5.87827 19.3894C4.81433 19.3422 4.08837 19.1816 3.4504 18.9493C2.78312 18.7126 2.1787 18.3409 1.67949 17.8604C1.17056 17.3884 0.776761 16.8173 0.52555 16.1869C0.278563 15.5853 0.110571 14.8996 0.0605738 13.8948C0.0494373 13.6707 0.0394377 13.4466 0.0305754 13.2224L0.0255758 13.0392C0.00714031 12.3502 -0.00119349 11.661 0.000576971 10.9718V9.03013C-0.00221385 8.34127 0.00511989 7.65241 0.0225759 6.96375L0.0295755 6.78054C0.0375751 6.56899 0.0475746 6.35933 0.059574 6.10811C0.109571 5.10231 0.277563 4.41762 0.52455 3.81508C0.77591 3.1848 1.17048 2.61421 1.68049 2.14347C2.17936 1.66253 2.7834 1.29026 3.4504 1.05267C4.08837 0.819405 4.81333 0.660744 5.87827 0.613523L6.59024 0.585191L6.78423 0.580469C7.51337 0.563066 8.24274 0.555195 8.97212 0.556858L11.028 0.557803ZM10.0001 5.27986C9.3376 5.27102 8.67989 5.38661 8.06514 5.61992C7.45039 5.85323 6.89087 6.19961 6.41909 6.63893C5.94732 7.07824 5.57269 7.60174 5.31699 8.17899C5.06129 8.75623 4.92962 9.37572 4.92962 10.0015C4.92962 10.6272 5.06129 11.2467 5.31699 11.8239C5.57269 12.4012 5.94732 12.9247 6.41909 13.364C6.89087 13.8033 7.45039 14.1497 8.06514 14.383C8.67989 14.6163 9.3376 14.7319 10.0001 14.723C11.3261 14.723 12.5978 14.2255 13.5354 13.34C14.4731 12.4544 14.9998 11.2534 14.9998 10.001C14.9998 8.74861 14.4731 7.54754 13.5354 6.66198C12.5978 5.77642 11.3261 5.27986 10.0001 5.27986ZM10.0001 7.16869C10.3986 7.16175 10.7945 7.22988 11.1648 7.3691C11.5351 7.50832 11.8723 7.71583 12.1567 7.97951C12.4412 8.24319 12.6671 8.55776 12.8214 8.90484C12.9756 9.25192 13.0551 9.62455 13.0552 10.001C13.0552 10.3774 12.9759 10.75 12.8217 11.0972C12.6676 11.4443 12.4418 11.7589 12.1574 12.0227C11.8731 12.2865 11.536 12.4941 11.1657 12.6334C10.7955 12.7728 10.3996 12.841 10.0011 12.8342C9.20546 12.8342 8.44243 12.5357 7.87985 12.0044C7.31727 11.473 7.00122 10.7524 7.00122 10.001C7.00122 9.24956 7.31727 8.52891 7.87985 7.99758C8.44243 7.46624 9.20546 7.16774 10.0011 7.16774L10.0001 7.16869ZM15.2498 3.86325C14.9272 3.87544 14.6221 4.00505 14.3984 4.22493C14.1748 4.44481 14.0498 4.7379 14.0498 5.04282C14.0498 5.34773 14.1748 5.64083 14.3984 5.8607C14.6221 6.08058 14.9272 6.21019 15.2498 6.22239C15.5813 6.22239 15.8992 6.09801 16.1336 5.87662C16.368 5.65523 16.4997 5.35496 16.4997 5.04187C16.4997 4.72878 16.368 4.42851 16.1336 4.20712C15.8992 3.98573 15.5813 3.86136 15.2498 3.86136V3.86325Z" fill="#111111"/>
</g>
<defs>
<clipPath id="clip0_1864_543">
<rect width="20" height="20" fill="white"/>
</clipPath>
</defs>
</svg>
