<svg width="36" height="36" viewBox="0 0 36 36" fill="none" xmlns="http://www.w3.org/2000/svg">
<circle cx="18" cy="18" r="18" transform="matrix(-1 0 0 1 36 0)" fill="white"/>
<circle cx="18" cy="18" r="17.5" transform="matrix(-1 0 0 1 36 0)" stroke="#111111" stroke-opacity="0.25"/>
<g clip-path="url(#clip0_0_1268)">
<path d="M22.25 11.7004L22.25 24.3008C22.2496 24.4284 22.2144 24.5534 22.1481 24.6625C22.0818 24.7715 21.9869 24.8605 21.8737 24.9197C21.7606 24.979 21.6333 25.0063 21.5058 24.9988C21.3782 24.9912 21.2551 24.9491 21.1497 24.8769L12.0335 18.5767C11.6555 18.3156 11.6555 17.687 12.0335 17.4252L21.1497 11.125C21.2549 11.0521 21.378 11.0093 21.5058 11.0014C21.6336 10.9934 21.7611 11.0206 21.8746 11.0799C21.988 11.1392 22.0829 11.2284 22.1491 11.3378C22.2153 11.4472 22.2502 11.5726 22.25 11.7004Z" fill="#111111"/>
</g>
<defs>
<clipPath id="clip0_0_1268">
<rect width="14" height="14" fill="white" transform="matrix(4.37114e-08 1 1 -4.37114e-08 10 11)"/>
</clipPath>
</defs>
</svg>
