<svg width="20" height="20" viewBox="0 0 20 20" fill="none" xmlns="http://www.w3.org/2000/svg">
<path d="M8 12.8558L13.19 9.9987L8 7.14156V12.8558ZM19.56 5.3987C19.69 5.84632 19.78 6.44632 19.84 7.20822C19.91 7.97013 19.94 8.62727 19.94 9.1987L20 9.9987C20 12.0844 19.84 13.6177 19.56 14.5987C19.31 15.4558 18.73 16.0082 17.83 16.2463C17.36 16.3701 16.5 16.4558 15.18 16.513C13.88 16.5797 12.69 16.6082 11.59 16.6082L10 16.6654C5.81 16.6654 3.2 16.513 2.17 16.2463C1.27 16.0082 0.69 15.4558 0.44 14.5987C0.31 14.1511 0.22 13.5511 0.16 12.7892C0.0900001 12.0273 0.0599999 11.3701 0.0599999 10.7987L0 9.9987C0 7.91298 0.16 6.37965 0.44 5.3987C0.69 4.54156 1.27 3.98917 2.17 3.75108C2.64 3.62727 3.5 3.54155 4.82 3.48441C6.12 3.41775 7.31 3.38917 8.41 3.38917L10 3.33203C14.19 3.33203 16.8 3.48441 17.83 3.75108C18.73 3.98917 19.31 4.54156 19.56 5.3987Z" fill="#111111"/>
</svg>
