<svg width="54" height="54" viewBox="0 0 54 54" fill="none" xmlns="http://www.w3.org/2000/svg">
<path d="M27 29.3477C38.8785 29.3477 42.8495 35.2597 42.8496 39.0059V44.6504H11.1494V39.0059C11.1495 35.2597 15.1213 29.3477 27 29.3477ZM27 32.248C22.7387 32.248 19.5229 33.0695 17.3594 34.3174C15.1989 35.5636 14.0499 37.2634 14.0498 39.0059V41.75H39.9502V39.0059C39.9501 37.2635 38.8011 35.5636 36.6406 34.3174C34.4771 33.0695 31.2613 32.2481 27 32.248ZM27 9.34961C31.8502 9.34971 35.7578 13.229 35.7578 18C35.7578 22.771 31.8502 26.6503 27 26.6504C22.1497 26.6504 18.2422 22.7711 18.2422 18C18.2422 13.2289 22.1497 9.34961 27 9.34961ZM27 12.25C23.752 12.25 21.1416 14.8315 21.1416 18C21.1416 21.1685 23.752 23.75 27 23.75C30.2479 23.7499 32.8574 21.1685 32.8574 18C32.8574 14.8315 30.2479 12.2501 27 12.25Z" fill="#111111" stroke="white" stroke-width="0.7"/>
</svg>
