<svg width="36" height="36" viewBox="0 0 36 36" fill="none" xmlns="http://www.w3.org/2000/svg">
<circle cx="18" cy="18" r="18" fill="white"/>
<circle cx="18" cy="18" r="17.5" stroke="#111111" stroke-opacity="0.25"/>
<g clip-path="url(#clip0_0_1267)">
<path d="M13.75 11.7004L13.75 24.3008C13.7504 24.4284 13.7856 24.5534 13.8519 24.6625C13.9182 24.7715 14.0131 24.8605 14.1263 24.9197C14.2394 24.979 14.3667 25.0063 14.4942 24.9988C14.6218 24.9912 14.7449 24.9491 14.8503 24.8769L23.9665 18.5767C24.3445 18.3156 24.3445 17.687 23.9665 17.4252L14.8503 11.125C14.7451 11.0521 14.622 11.0093 14.4942 11.0014C14.3664 10.9934 14.2389 11.0206 14.1254 11.0799C14.012 11.1392 13.9171 11.2284 13.8509 11.3378C13.7847 11.4472 13.7498 11.5726 13.75 11.7004Z" fill="#111111"/>
</g>
<defs>
<clipPath id="clip0_0_1267">
<rect width="14" height="14" fill="white" transform="translate(26 11) rotate(90)"/>
</clipPath>
</defs>
</svg>
