<svg width="54" height="54" viewBox="0 0 54 54" fill="none" xmlns="http://www.w3.org/2000/svg">
<path d="M43.7776 16.7611C43.6873 16.6527 43.5742 16.5654 43.4465 16.5056C43.3187 16.4457 43.1793 16.4147 43.0382 16.4147H16.8963L16.0672 11.8442C15.9732 11.3266 15.7005 10.8585 15.2966 10.5214C14.8927 10.1843 14.3832 9.99981 13.8571 10H10.9623C10.7071 10 10.4623 10.1014 10.2818 10.2818C10.1014 10.4623 10 10.707 10 10.9622C10 11.2174 10.1014 11.4621 10.2818 11.6426C10.4623 11.823 10.7071 11.9244 10.9623 11.9244H13.8491C13.9251 11.9232 13.999 11.9489 14.0577 11.9971C14.1165 12.0452 14.1562 12.1127 14.1699 12.1874L18.2612 34.6868C18.3909 35.4046 18.7407 36.0642 19.2619 36.5744C18.6325 37.0778 18.1624 37.7528 17.9087 38.5178C17.6549 39.2827 17.6283 40.1049 17.8321 40.8846C18.0359 41.6644 18.4613 42.3684 19.0569 42.9114C19.6525 43.4545 20.3927 43.8133 21.188 43.9444C21.9833 44.0756 22.7995 43.9734 23.5379 43.6504C24.2764 43.3273 24.9054 42.7972 25.3488 42.1242C25.7922 41.4511 26.031 40.664 26.0363 39.8581C26.0416 39.0521 25.8133 38.2619 25.3788 37.5831H33.7538C33.2552 38.3634 33.0305 39.2875 33.1152 40.2096C33.1999 41.1318 33.5892 41.9995 34.2217 42.6759C34.8542 43.3523 35.6939 43.7989 36.6084 43.9453C37.5228 44.0917 38.46 43.9295 39.2721 43.4844C40.0841 43.0392 40.7249 42.3365 41.0933 41.4869C41.4617 40.6373 41.5368 39.6892 41.3067 38.7922C41.0766 37.8952 40.5544 37.1004 39.8225 36.533C39.0906 35.9656 38.1907 35.658 37.2646 35.6587H21.735C21.3594 35.6587 20.9957 35.527 20.7073 35.2864C20.4189 35.0457 20.2241 34.7116 20.1569 34.3421L19.5795 31.1684H38.5636C39.39 31.1686 40.1902 30.8788 40.8247 30.3495C41.4592 29.8203 41.8879 29.0851 42.0359 28.2722L43.9845 17.5485C44.0096 17.4101 44.0042 17.2678 43.9684 17.1318C43.9327 16.9958 43.8675 16.8692 43.7776 16.7611ZM24.1134 39.8282C24.1134 40.2722 23.9817 40.7063 23.735 41.0755C23.4883 41.4447 23.1376 41.7325 22.7273 41.9024C22.3171 42.0724 21.8656 42.1168 21.4301 42.0302C20.9945 41.9436 20.5944 41.7297 20.2804 41.4157C19.9664 41.1018 19.7526 40.7017 19.6659 40.2662C19.5793 39.8307 19.6238 39.3793 19.7937 38.969C19.9636 38.5588 20.2514 38.2081 20.6207 37.9614C20.9899 37.7147 21.424 37.5831 21.8681 37.5831C22.4636 37.5831 23.0347 37.8196 23.4558 38.2407C23.8769 38.6617 24.1134 39.2328 24.1134 39.8282ZM39.5099 39.8282C39.5099 40.2722 39.3782 40.7063 39.1315 41.0755C38.8848 41.4447 38.5341 41.7325 38.1238 41.9024C37.7135 42.0724 37.2621 42.1168 36.8265 42.0302C36.391 41.9436 35.9909 41.7297 35.6769 41.4157C35.3629 41.1018 35.149 40.7017 35.0624 40.2662C34.9758 39.8307 35.0202 39.3793 35.1902 38.969C35.3601 38.5588 35.6479 38.2081 36.0171 37.9614C36.3864 37.7147 36.8205 37.5831 37.2646 37.5831C37.8601 37.5831 38.4312 37.8196 38.8522 38.2407C39.2733 38.6617 39.5099 39.2328 39.5099 39.8282ZM40.1418 27.9274C40.0745 28.2969 39.8797 28.6311 39.5913 28.8717C39.3029 29.1123 38.9392 29.2441 38.5636 29.244H19.2299L17.2476 18.3391H41.8851L40.1418 27.9274Z" fill="#111111"/>
</svg>
